<?xml version="1.0" encoding="iso-8859-1"?>
<!-- Generator: Adobe Illustrator 16.0.0, SVG Export Plug-In . SVG Version: 6.00 Build 0)  -->
<!DOCTYPE svg PUBLIC "-//W3C//DTD SVG 1.1//EN" "http://www.w3.org/Graphics/SVG/1.1/DTD/svg11.dtd">
<svg xmlns="http://www.w3.org/2000/svg" xmlns:xlink="http://www.w3.org/1999/xlink" version="1.1" id="Capa_1" x="0px" y="0px" width="512px" height="512px" viewBox="0 0 456.996 456.996" style="enable-background:new 0 0 456.996 456.996;" xml:space="preserve">
<g>
	<g>
		<path d="M230.496,120.957c-70.537,0-127.924,57.387-127.924,127.924c0,70.537,57.387,127.924,127.924,127.924    c70.538,0,127.926-57.387,127.926-127.924C358.422,178.343,301.034,120.957,230.496,120.957z M230.496,361.806    c-62.267,0-112.924-50.658-112.924-112.925c0-62.265,50.657-112.923,112.924-112.923c62.268,0,112.926,50.658,112.926,112.923    C343.422,311.147,292.764,361.806,230.496,361.806z" fill="#467fcf"/>
		<path d="M453.101,73.115c-2.398-1.316-5.328-1.219-7.64,0.255c-2.265,1.446-55.465,36.756-55.465,154.603    c0,4.143,3.357,7.5,7.5,7.5h44.5v141.832c0,4.143,3.357,7.5,7.5,7.5s7.5-3.357,7.5-7.5V227.973v-10.188V79.691    C456.996,76.953,455.503,74.432,453.101,73.115z M405.074,220.473c1.101-52.696,13.688-86.055,24.325-105.006    c4.38-7.802,8.776-13.833,12.597-18.346v120.664v2.688H405.074z" fill="#467fcf"/>
		<path d="M79.496,72.191c-4.143,0-7.5,3.358-7.5,7.5v93.995c0,1.378-1.121,2.5-2.5,2.5H50.998V79.691c0-4.142-3.357-7.5-7.5-7.5    s-7.5,3.358-7.5,7.5v96.495H17.5c-1.379,0-2.5-1.122-2.5-2.5V79.691c0-4.142-3.357-7.5-7.5-7.5S0,75.549,0,79.691v93.995    c0,9.649,7.851,17.5,17.5,17.5h18.498v186.118c0,4.143,3.357,7.5,7.5,7.5s7.5-3.357,7.5-7.5V191.187h18.498    c9.649,0,17.5-7.851,17.5-17.5V79.691C86.996,75.549,83.639,72.191,79.496,72.191z" fill="#467fcf"/>
	</g>
</g>
<g>
</g>
<g>
</g>
<g>
</g>
<g>
</g>
<g>
</g>
<g>
</g>
<g>
</g>
<g>
</g>
<g>
</g>
<g>
</g>
<g>
</g>
<g>
</g>
<g>
</g>
<g>
</g>
<g>
</g>
</svg>
